PathFileType	4	(X/Y/Z)	C:/Users/opensim2020/Desktop/walking_exp_matlab/subject02_walking04_straight_03.trc	
DataRate	CameraRate	NumFrames	NumMarkers	Units	OrigDataRate	OrigDataStartFrame	OrigNumFrames	
100.00	100.00	9	42	mm	100.00	2344	222	
Frame#	Time	LFHD			RFHD			LBHD			RBHD			C7			T10			CLAV			STRN			RBAK			LSHO			LUPA			LELB			LFRM			LWRA			LWRB			LFIN			RSHO			RUPA			RELB			RFRM			RWRA			RWRB			RFIN			LASI			RASI			LPSI			RPSI			LTHI			LKNE			LTIB			LANK			LHEE			LTOE			RTHI			RKNE			RTIB			RANK			RHEE			RTOE			*39			*40			*41			
		X1	Y1	Z1	X2	Y2	Z2	X3	Y3	Z3	X4	Y4	Z4	X5	Y5	Z5	X6	Y6	Z6	X7	Y7	Z7	X8	Y8	Z8	X9	Y9	Z9	X10	Y10	Z10	X11	Y11	Z11	X12	Y12	Z12	X13	Y13	Z13	X14	Y14	Z14	X15	Y15	Z15	X16	Y16	Z16	X17	Y17	Z17	X18	Y18	Z18	X19	Y19	Z19	X20	Y20	Z20	X21	Y21	Z21	X22	Y22	Z22	X23	Y23	Z23	X24	Y24	Z24	X25	Y25	Z25	X26	Y26	Z26	X27	Y27	Z27	X28	Y28	Z28	X29	Y29	Z29	X30	Y30	Z30	X31	Y31	Z31	X32	Y32	Z32	X33	Y33	Z33	X34	Y34	Z34	X35	Y35	Z35	X36	Y36	Z36	X37	Y37	Z37	X38	Y38	Z38	X39	Y39	Z39	X40	Y40	Z40	X41	Y41	Z41	X42	Y42	Z42	

139	1.380	-1108.43835	284.00470	1730.09790	-965.77197	266.92221	1710.49756	-1133.87280	162.95201	1643.46179	-994.41766	134.21318	1621.89880	-1049.80396	106.35108	1505.84192	-1036.38416	60.21802	1227.98596	-1068.20300	249.79836	1441.42261	-1052.67163	307.92316	1274.06445	-974.60889	56.91957	1332.54309	-1235.17529	169.19977	1472.92456	-1307.91125	126.22038	1272.96826	-1311.22949	100.32328	1134.99805	-1325.39343	82.01562	1005.33258	-1299.29321	113.05899	869.59949	-1329.87878	67.30772	883.31403	-1331.48694	68.49283	815.65259	-867.93353	200.46533	1482.37683	-772.36060	209.93015	1295.67090	-742.88318	264.07156	1159.06152	-731.22083	337.79669	1061.04565	-758.46008	428.68466	965.35162	-721.80225	391.34067	942.47662	-722.21643	452.15982	905.47150	-1177.03442	322.85046	991.49927	-921.03259	312.15399	957.31561	-1105.47473	104.00471	1012.25507	-989.62225	97.64380	1003.25085	-1243.58972	326.45996	685.27557	-1212.85559	346.35193	482.72589	-1217.18311	328.02383	288.72147	-1181.62488	364.05374	70.59088	-1130.49036	330.41730	41.55804	-1186.08398	519.52734	41.57615	-848.60632	183.55708	661.18414	-860.49854	145.40996	457.87527	-857.51538	8.21693	327.88626	-888.23407	-113.05694	177.11540	-948.87372	-164.29073	150.67247	-875.56140	-27.12333	36.06230	-1032.77747	165.66985	1785.18091	-3360.26294	2845.15381	1033.79321			 
140	1.390	-1110.52185	293.73413	1730.94714	-967.76154	276.29443	1711.24316	-1136.27734	172.01891	1645.30566	-996.84576	142.83562	1623.73877	-1052.18030	115.03411	1506.72791	-1038.77087	69.80392	1228.81287	-1070.75305	258.82669	1443.05603	-1055.60437	317.69226	1275.91345	-976.74329	65.87595	1333.65991	-1237.41614	177.94621	1474.59814	-1310.78687	138.45901	1274.00464	-1314.49036	114.51312	1135.72400	-1328.68518	98.58847	1005.79395	-1302.34399	131.81651	870.58636	-1333.35803	86.08520	883.53705	-1335.03381	88.56602	815.85345	-870.68372	209.37944	1483.89490	-775.69507	217.87141	1296.95361	-746.78369	270.35736	1159.79272	-734.56982	342.86041	1060.79126	-761.59967	432.62222	963.72662	-725.44568	394.57666	941.32068	-726.02448	454.88727	903.23291	-1180.56091	332.58301	994.76465	-926.15039	322.17004	958.79114	-1107.96008	114.07203	1013.39545	-991.71191	108.34550	1004.47992	-1245.94287	336.10114	685.78503	-1214.83325	351.68326	482.83807	-1216.99243	330.01941	288.73901	-1181.51221	364.40964	70.45667	-1130.63501	330.11615	41.95193	-1186.01331	519.97797	41.06841	-850.74652	197.41077	661.36505	-859.86548	163.73190	458.31097	-857.10413	23.56154	331.68484	-888.84393	-100.37186	184.03360	-950.46802	-151.07288	160.26796	-876.47711	-24.96781	36.71254	-1035.00269	175.66739	1786.77319	-3357.39087	2845.71973	1033.86792			 
141	1.400	-1112.59204	303.42743	1731.81116	-969.82428	285.70648	1712.07080	-1138.60999	181.08633	1647.17261	-999.11322	151.35945	1625.51172	-1054.65271	123.74415	1507.56885	-1041.25745	79.21884	1229.72900	-1073.21411	267.88959	1444.73779	-1058.36829	327.45258	1277.73682	-978.80328	75.69379	1334.53845	-1239.52441	186.67126	1476.40210	-1313.90308	150.63336	1275.35632	-1317.79846	128.79778	1136.84766	-1332.12683	115.55917	1006.53711	-1305.49548	151.13036	871.92609	-1336.86047	105.39956	883.86847	-1338.64795	109.30039	816.34900	-873.31232	218.08093	1485.48035	-778.66284	226.09145	1298.31799	-750.63202	276.54987	1160.35059	-738.15845	347.68359	1060.70178	-765.27881	435.99341	962.04279	-728.77838	397.75250	940.32983	-729.36578	457.73541	901.49103	-1183.98975	342.06635	997.68231	-930.89886	332.12897	960.53326	-1110.25452	124.03244	1014.34338	-993.82751	118.41769	1005.75519	-1248.06982	344.70377	686.60406	-1216.71118	355.77945	482.65149	-1216.66943	331.11951	288.52844	-1181.66443	364.42599	70.40472	-1130.46973	330.45450	41.58885	-1186.05859	520.25751	40.70125	-852.69568	211.39653	661.20880	-859.66638	181.87108	458.42783	-857.07318	40.07458	335.11917	-889.53113	-86.81803	190.49496	-951.76123	-137.49373	169.67285	-878.28271	-20.95671	38.27555	-1037.11328	185.82396	1788.57751	-3360.35547	2845.24341	1033.71533			 
142	1.410	-1114.45557	313.04208	1732.69434	-971.98785	294.94498	1712.61829	-1140.82043	190.22124	1649.14270	-1001.51996	160.22302	1627.52832	-1057.17505	132.47057	1508.50256	-1043.74268	88.59623	1230.81348	-1075.52515	276.94724	1446.40466	-1060.97571	336.99591	1279.51953	-980.94574	84.36166	1335.83533	-1241.75110	195.38181	1478.29248	-1316.48022	162.68214	1276.67786	-1321.18262	143.09534	1137.93335	-1336.18774	132.79807	1007.50317	-1308.72876	170.90442	873.52869	-1340.46948	125.15683	884.64917	-1342.28650	130.58925	817.05988	-876.02795	226.16811	1486.79248	-781.78699	233.71666	1299.46680	-754.30548	282.69000	1161.27100	-741.47858	352.27432	1060.30713	-768.62439	439.28012	960.34778	-731.94275	400.67249	939.32404	-732.64355	459.88370	899.27692	-1187.22583	351.29044	1000.11078	-935.18787	341.70859	962.25415	-1112.65710	133.76714	1015.09357	-996.21088	127.88638	1007.04816	-1250.16333	352.21976	687.47473	-1218.63159	359.01483	482.47610	-1216.99390	331.74396	288.38232	-1181.57458	364.48322	70.23312	-1130.54431	330.35446	41.60462	-1186.03650	520.40930	40.45018	-854.41455	225.35963	660.60962	-859.80054	200.12845	458.33099	-857.46454	57.52450	337.91837	-890.42029	-72.61644	196.80232	-952.94635	-123.94977	178.59514	-879.41040	-14.00707	42.30328	-1039.11182	195.75856	1790.23499	-3357.42310	2845.75195	1033.85486			 
143	1.420	-1116.44995	322.62134	1733.74756	-973.88147	304.41879	1713.76880	-1142.96570	199.29541	1651.02368	-1003.78967	168.97949	1629.37268	-1059.71045	141.23965	1509.65344	-1046.34326	97.86277	1231.99170	-1077.74207	286.04684	1448.07959	-1063.39722	346.33569	1281.28687	-983.13031	92.42970	1337.48389	-1244.17224	204.24626	1480.31323	-1319.42468	174.69347	1278.12378	-1324.65588	157.40465	1139.07385	-1339.04456	149.98708	1008.27148	-1311.89929	191.05458	875.27618	-1343.86646	145.27170	885.41492	-1345.93933	152.38443	817.98621	-878.32361	234.88712	1488.44824	-784.59723	241.46452	1300.83032	-758.03595	288.40347	1161.86572	-744.91309	356.90701	1060.21765	-771.94708	442.45844	958.69818	-734.89978	403.59818	938.42218	-736.10266	462.25278	897.01721	-1190.27197	360.33719	1001.89288	-938.87555	350.97858	963.79877	-1115.18713	143.22314	1015.88885	-998.82800	136.93257	1008.28314	-1252.02881	358.98291	688.05255	-1220.51233	361.76385	482.61426	-1218.37842	332.49442	288.55835	-1181.65784	364.51178	70.09263	-1130.84485	329.88263	41.88301	-1185.92664	520.46570	40.25583	-856.33984	239.57840	659.94348	-860.03168	218.73430	458.56445	-857.86707	75.32706	340.43320	-891.82709	-58.34098	203.18181	-954.45050	-109.51167	186.84856	-879.08783	-3.41425	47.81658	-1041.00732	205.61763	1791.95752	-3357.26440	2845.80786	1033.85059			 
144	1.430	-1118.24915	332.19855	1734.99792	-976.57483	313.52512	1714.86938	-1145.06653	208.45720	1652.95251	-1005.95306	177.85905	1631.23669	-1062.17871	150.09430	1511.01526	-1049.05530	107.13972	1233.31042	-1079.78687	295.04489	1449.72571	-1065.63196	354.67697	1282.82104	-986.09717	101.70437	1338.61536	-1246.24084	213.27664	1482.16675	-1322.33911	186.66464	1279.57141	-1328.14319	171.70331	1140.06824	-1342.55640	167.47757	1009.13721	-1315.07141	211.58876	877.29150	-1347.25305	165.69534	886.29846	-1349.30383	174.73340	819.05389	-880.66095	242.78076	1489.88049	-787.19122	249.08792	1301.96509	-761.58942	294.24057	1162.30957	-747.98651	361.24838	1059.84338	-775.10571	445.45361	956.83936	-737.75537	406.41003	937.50562	-739.66180	464.19611	894.57709	-1193.07861	369.20212	1003.19873	-941.80811	360.00443	965.19824	-1117.82996	152.37437	1016.89081	-1001.71722	145.59496	1009.54681	-1253.62903	365.18259	688.41168	-1222.26782	364.32162	482.91339	-1220.29956	333.84265	288.95242	-1181.91443	364.46222	70.00451	-1131.06152	329.71240	41.84019	-1185.85132	520.41675	40.09610	-858.30237	253.67325	659.65717	-860.44287	237.35004	459.03229	-858.62134	92.97955	343.14172	-893.96143	-42.85439	208.81740	-957.10773	-93.62988	193.20259	-877.17548	9.86033	53.54271	-1042.87585	215.43423	1793.69043	-3357.37061	2845.88940	1033.78894			 
145	1.440	-1120.02319	341.67126	1736.36536	-978.16675	322.81198	1716.33862	-1147.14172	217.62781	1654.93457	-1008.09906	186.76494	1633.15112	-1064.60645	159.03833	1512.57202	-1051.91199	116.30915	1234.74475	-1081.74133	303.99872	1451.46155	-1067.74878	363.78745	1284.57617	-988.78290	110.71993	1339.87085	-1248.31824	222.40315	1483.70959	-1325.27954	198.50430	1280.97998	-1331.74695	186.08746	1141.18616	-1346.13452	185.09340	1010.20129	-1318.19055	232.38737	879.50238	-1350.37830	186.32355	887.12555	-1352.90271	197.33881	820.46417	-882.69983	250.89047	1491.10071	-789.44568	256.08328	1303.07275	-765.08899	299.75003	1162.77283	-751.04218	365.61142	1059.42078	-778.40497	448.16565	955.03748	-740.46735	409.24268	936.56738	-743.08038	466.27972	892.31824	-1195.56677	378.00256	1004.03656	-943.89471	368.46786	966.46277	-1120.71692	161.31866	1018.21674	-1004.74457	153.92499	1010.90381	-1255.15808	370.72275	688.71667	-1223.93274	366.77966	483.21469	-1222.34277	335.49072	289.59940	-1182.26697	364.35373	69.91989	-1131.33044	329.47672	41.84846	-1185.76660	520.34937	40.06589	-860.14655	267.21613	659.96710	-861.07886	255.56909	460.14191	-860.16199	110.84251	346.23965	-896.87817	-26.30862	213.75435	-960.96509	-76.67616	197.31046	-875.36725	25.33722	59.25798	-1044.71033	225.15172	1795.44666	-3360.25439	2844.98218	1033.78088			 
146	1.450	-1121.64990	351.17188	1737.75977	-979.47382	332.02783	1717.56482	-1149.06458	226.84399	1656.88306	-1010.23846	195.48618	1635.24390	-1066.96594	168.01266	1514.25562	-1054.86096	125.34553	1236.26782	-1083.56995	312.86127	1453.14465	-1069.55688	372.68762	1286.21130	-991.41296	119.68970	1341.03052	-1250.47363	231.89114	1485.36780	-1328.53809	210.40030	1282.48547	-1335.44299	200.55925	1142.31323	-1349.63843	202.90492	1011.12897	-1321.25940	253.41693	881.98315	-1353.51294	207.19806	888.23950	-1356.36511	220.32924	822.14276	-884.60779	258.85287	1492.28540	-791.66205	263.59717	1304.04639	-768.41010	305.39713	1163.04175	-753.90656	369.74963	1058.95410	-781.14105	451.54227	953.42810	-743.07306	411.98557	935.64331	-746.27502	467.95764	889.79407	-1197.69592	386.66211	1004.43219	-945.35699	376.80371	967.93433	-1123.61389	169.82013	1019.86176	-1007.96466	161.93704	1012.34448	-1256.91736	375.62906	688.93915	-1225.66602	369.19559	483.43286	-1223.99658	336.98169	289.89377	-1182.55115	364.18057	69.82510	-1131.66064	329.15131	41.77821	-1185.65881	520.20117	40.05416	-862.02161	280.43811	661.18591	-861.88293	274.27231	461.65240	-862.25104	128.98360	349.33328	-900.20288	-9.00486	217.84732	-965.21942	-58.34647	199.53354	-873.38190	42.54071	64.49648	-1046.67151	234.47961	1797.28210	-3360.23682	2845.10327	1033.71094			 
147	1.460	-1123.28125	360.64209	1739.17090	-981.10040	341.13968	1718.94153	-1150.97241	236.09457	1658.77124	-1012.64966	203.99968	1636.99976	-1069.24475	177.00183	1515.97009	-1057.81653	134.24174	1237.78833	-1085.26331	321.73166	1454.72571	-1071.24036	381.52737	1287.74451	-994.79150	128.55188	1342.36279	-1252.49744	241.49234	1486.92334	-1331.24646	222.23532	1283.84436	-1339.14514	215.14020	1143.45789	-1352.90161	220.84512	1012.14130	-1324.23743	274.61908	884.70557	-1356.53674	228.21942	889.67493	-1359.87012	243.58133	824.13556	-886.34125	266.78226	1493.40271	-793.93146	269.90634	1304.71045	-771.55573	311.09671	1163.43896	-756.64728	373.82462	1058.41638	-783.88629	453.96878	951.60309	-745.69324	414.71365	934.80322	-749.11780	469.69431	887.77722	-1199.52600	395.34351	1004.42017	-946.37402	384.82608	969.51569	-1126.71277	178.35458	1021.73419	-1011.16364	169.76157	1013.93762	-1258.26575	379.85983	689.08630	-1226.89746	371.69333	483.35129	-1225.18384	338.09167	290.03662	-1182.79272	363.96124	69.72118	-1131.80701	329.16595	41.36165	-1185.54419	519.99658	40.02975	-863.78851	293.90506	662.91437	-863.08032	292.39059	463.70773	-864.52197	147.49074	351.93915	-903.41730	9.57589	220.67422	-969.14075	-39.01827	200.61086	-871.20026	60.76201	68.86967	-1048.54016	243.96826	1798.97363	-3357.40894	2845.98413	1033.79944			 
